<svg width="86" height="81" viewBox="0 0 86 81" fill="none" xmlns="http://www.w3.org/2000/svg">
<rect x="4.70872" y="4.79856" width="70.5826" height="70.5826" rx="27.5796" fill="#A5B4CB" fill-opacity="0.41" stroke="white" stroke-width="9.41744"/>
<path fill-rule="evenodd" clip-rule="evenodd" d="M40.8458 52.3595C35.6026 52.3595 31.125 51.5436 31.125 48.2759C31.125 45.0083 35.5742 41.9918 40.8458 41.9918C46.089 41.9918 50.5666 44.9791 50.5666 48.2467C50.5666 51.513 46.1174 52.3595 40.8458 52.3595Z" stroke="white" stroke-width="2.01802" stroke-linecap="round" stroke-linejoin="round"/>
<path fill-rule="evenodd" clip-rule="evenodd" d="M40.8365 37.4621C44.2773 37.4621 47.0661 34.6733 47.0661 31.2325C47.0661 27.7917 44.2773 25.0016 40.8365 25.0016C37.3956 25.0016 34.6055 27.7917 34.6055 31.2325C34.5939 34.6617 37.3634 37.4505 40.7926 37.4621C40.8081 37.4621 40.8223 37.4621 40.8365 37.4621Z" stroke="white" stroke-width="2.01802" stroke-linecap="round" stroke-linejoin="round"/>
<rect x="60.8301" y="4.7207" width="24.2163" height="24.2163" rx="10.7628" fill="#FD671E"/>
<path d="M77.4164 20.7227C77.7287 20.7227 77.9827 20.98 77.9827 21.2964C77.9827 21.6133 77.7287 21.87 77.4164 21.87H74.2155C73.9032 21.87 73.6492 21.6133 73.6492 21.2964C73.6492 20.98 73.9032 20.7227 74.2155 20.7227H77.4164ZM75.1966 12.1718L76.0235 12.8286C76.3625 13.0937 76.5886 13.4432 76.6659 13.8108C76.7551 14.2152 76.6599 14.6123 76.3923 14.9557L71.4669 21.3251C71.2409 21.6143 70.9078 21.777 70.5509 21.7831L68.5879 21.8072C68.4808 21.8072 68.3916 21.7349 68.3678 21.6324L67.9217 19.6981C67.8443 19.3426 67.9217 18.975 68.1477 18.6918L71.6394 14.1724C71.6989 14.1001 71.806 14.0886 71.8774 14.1422L73.3467 15.3113C73.4418 15.3896 73.5727 15.4318 73.7095 15.4137C74.001 15.3775 74.1973 15.1124 74.1675 14.8292C74.1497 14.6846 74.0783 14.5641 73.9831 14.4737C73.9534 14.4496 72.5555 13.3287 72.5555 13.3287C72.4663 13.2564 72.4484 13.1239 72.5198 13.0341L73.073 12.3164C73.5846 11.6596 74.4769 11.5993 75.1966 12.1718Z" fill="white"/>
</svg>
