<svg width="16" height="12" viewBox="0 0 16 12" fill="none" xmlns="http://www.w3.org/2000/svg">
<path d="M9.24983 6.35271C8.77983 6.35271 8.38455 6.19243 8.064 5.87187C7.74344 5.55132 7.58316 5.15604 7.58316 4.68604C7.58316 4.21604 7.74344 3.82076 8.064 3.50021C8.38455 3.17965 8.77983 3.01938 9.24983 3.01938C9.71983 3.01938 10.1151 3.17965 10.4357 3.50021C10.7562 3.82076 10.9165 4.21604 10.9165 4.68604C10.9165 5.15604 10.7562 5.55132 10.4357 5.87187C10.1151 6.19243 9.71983 6.35271 9.24983 6.35271ZM4.08983 9.01271C3.71928 9.01271 3.40233 8.88104 3.139 8.61771C2.87511 8.35382 2.74316 8.03687 2.74316 7.66687V1.70521C2.74316 1.33521 2.87511 1.01854 3.139 0.755208C3.40233 0.491319 3.719 0.359375 4.089 0.359375H14.4098C14.7804 0.359375 15.0973 0.491042 15.3607 0.754375C15.624 1.01771 15.7559 1.33465 15.7565 1.70521V7.66687C15.7565 8.03687 15.6246 8.35354 15.3607 8.61687C15.0973 8.88076 14.7807 9.01271 14.4107 9.01271H4.08983ZM4.92316 8.17937H13.5765C13.5765 7.80715 13.7084 7.48965 13.9723 7.22687C14.2357 6.96465 14.5523 6.83354 14.9223 6.83354V2.53854C14.5501 2.53854 14.2326 2.40688 13.9698 2.14354C13.7076 1.87965 13.5765 1.56271 13.5765 1.19271H4.92316C4.92316 1.56493 4.79122 1.88243 4.52733 2.14521C4.264 2.40743 3.94733 2.53854 3.57733 2.53854V6.83354C3.94955 6.83354 4.26705 6.96549 4.52983 7.22938C4.79205 7.49271 4.92316 7.80937 4.92316 8.17937ZM13.2882 11.5127H1.58983C1.21928 11.5127 0.902331 11.381 0.638997 11.1177C0.375109 10.8538 0.243164 10.5369 0.243164 10.1669V2.82688H1.0765V10.1669C1.0765 10.2947 1.13011 10.4122 1.23733 10.5194C1.344 10.626 1.4615 10.6794 1.58983 10.6794H13.2882V11.5127ZM4.08983 8.17937H3.5765V1.19271H4.08983C3.95094 1.19271 3.83066 1.24326 3.729 1.34438C3.62733 1.44604 3.5765 1.56632 3.5765 1.70521V7.66687C3.5765 7.80576 3.62733 7.92604 3.729 8.02771C3.83066 8.12882 3.95094 8.17937 4.08983 8.17937Z" fill="#FD671E"/>
</svg>
