<svg width="60" height="60" viewBox="0 0 60 60" fill="none" xmlns="http://www.w3.org/2000/svg">
<g filter="url(#filter0_d_1286_10736)">
<circle cx="30" cy="26" r="26" fill="#FD671E"/>
<path d="M23.334 18.333H24.2048C24.3688 18.333 24.4508 18.333 24.5168 18.3632C24.5749 18.3897 24.6242 18.4325 24.6588 18.4863C24.6979 18.5474 24.7095 18.6286 24.7327 18.7909L25.0483 20.9997M25.0483 20.9997L25.7495 26.1539C25.8385 26.808 25.883 27.1351 26.0394 27.3812C26.1772 27.5982 26.3747 27.7706 26.6082 27.8779C26.8732 27.9997 27.2033 27.9997 27.8634 27.9997H33.5686C34.197 27.9997 34.5112 27.9997 34.768 27.8866C34.9944 27.7869 35.1886 27.6262 35.3288 27.4225C35.4879 27.1914 35.5467 26.8828 35.6643 26.2655L36.5467 21.6328C36.5881 21.4155 36.6088 21.3069 36.5788 21.222C36.5525 21.1475 36.5006 21.0848 36.4324 21.045C36.3545 20.9997 36.244 20.9997 36.0228 20.9997H25.0483ZM28.6673 30.9997C28.6673 31.3679 28.3688 31.6663 28.0007 31.6663C27.6325 31.6663 27.334 31.3679 27.334 30.9997C27.334 30.6315 27.6325 30.333 28.0007 30.333C28.3688 30.333 28.6673 30.6315 28.6673 30.9997ZM34.0007 30.9997C34.0007 31.3679 33.7022 31.6663 33.334 31.6663C32.9658 31.6663 32.6673 31.3679 32.6673 30.9997C32.6673 30.6315 32.9658 30.333 33.334 30.333C33.7022 30.333 34.0007 30.6315 34.0007 30.9997Z" stroke="white" stroke-width="1.5" stroke-linecap="round" stroke-linejoin="round"/>
</g>
<defs>
<filter id="filter0_d_1286_10736" x="0" y="0" width="60" height="60" filterUnits="userSpaceOnUse" color-interpolation-filters="sRGB">
<feFlood flood-opacity="0" result="BackgroundImageFix"/>
<feColorMatrix in="SourceAlpha" type="matrix" values="0 0 0 0 0 0 0 0 0 0 0 0 0 0 0 0 0 0 127 0" result="hardAlpha"/>
<feOffset dy="4"/>
<feGaussianBlur stdDeviation="2"/>
<feComposite in2="hardAlpha" operator="out"/>
<feColorMatrix type="matrix" values="0 0 0 0 0 0 0 0 0 0 0 0 0 0 0 0 0 0 0.25 0"/>
<feBlend mode="normal" in2="BackgroundImageFix" result="effect1_dropShadow_1286_10736"/>
<feBlend mode="normal" in="SourceGraphic" in2="effect1_dropShadow_1286_10736" result="shape"/>
</filter>
</defs>
</svg>
