<svg width="17" height="19" viewBox="0 0 17 19" fill="none" xmlns="http://www.w3.org/2000/svg">
<path d="M8.45107 1.55859C5.72572 1.55859 3.52148 3.93178 3.52148 6.86604C3.52148 10.8466 8.45107 16.7227 8.45107 16.7227C8.45107 16.7227 13.3807 10.8466 13.3807 6.86604C13.3807 3.93178 11.1764 1.55859 8.45107 1.55859ZM4.92994 6.86604C4.92994 4.77339 6.50741 3.07501 8.45107 3.07501C10.3947 3.07501 11.9722 4.77339 11.9722 6.86604C11.9722 9.04968 9.94403 12.3175 8.45107 14.3571C6.98628 12.3327 4.92994 9.02693 4.92994 6.86604Z" fill="#6E6E6E"/>
<path d="M8.45107 8.76156C9.42341 8.76156 10.2116 7.91291 10.2116 6.86604C10.2116 5.81918 9.42341 4.97052 8.45107 4.97052C7.47874 4.97052 6.69051 5.81918 6.69051 6.86604C6.69051 7.91291 7.47874 8.76156 8.45107 8.76156Z" fill="#6E6E6E"/>
</svg>
