<svg width="13" height="12" viewBox="0 0 13 12" fill="none" xmlns="http://www.w3.org/2000/svg">
<g filter="url(#filter0_d_5144_19540)">
<rect x="2" y="1.58203" width="9" height="8.51153" rx="2.11765" fill="#FD671E"/>
<rect x="2" y="1.58203" width="9" height="8.51153" rx="2.11765" stroke="#FD671E" stroke-width="0.105882"/>
</g>
<path d="M7.59218 5.77342C7.49271 5.89129 7.35997 5.99269 7.20259 6.07101C7.04521 6.14934 6.86675 6.20282 6.67882 6.22798C6.4909 6.25314 6.29775 6.24941 6.11196 6.21703C5.92617 6.18465 5.75191 6.12435 5.60056 6.04007C5.44921 5.95578 5.32415 5.84939 5.23355 5.72785C5.14295 5.60631 5.08885 5.47234 5.07476 5.33468C5.06067 5.19702 5.08691 5.05876 5.15178 4.92892C5.21665 4.79908 5.31869 4.68057 5.45123 4.58113L6.43145 3.87318L6.43286 3.8745C6.551 3.78918 6.64471 3.68789 6.70865 3.57642C6.77258 3.46494 6.80549 3.34546 6.80549 3.2248C6.80549 3.10414 6.77258 2.98466 6.70865 2.87318C6.64471 2.76171 6.551 2.66042 6.43286 2.5751L6.43145 2.57422L4.5472 3.93508L4.54031 3.9402C4.28453 4.13054 4.08696 4.35756 3.96041 4.60657C3.83385 4.85557 3.78113 5.12099 3.80566 5.38564C3.8867 6.32215 4.93053 7.08555 6.22661 7.15623C6.57368 7.17555 6.92261 7.14499 7.25323 7.06632C7.58385 6.98765 7.8896 6.86243 8.1528 6.69789C8.416 6.53335 8.63143 6.33276 8.78664 6.10773C8.94184 5.88269 9.03374 5.63766 9.05703 5.38681H8.51688C8.13598 5.3874 7.79155 5.53827 7.59218 5.77342Z" fill="white"/>
<path d="M7.10271 5.1551C7.10317 5.26983 7.04143 5.38013 6.93069 5.46239C6.92684 5.46531 6.92279 5.46824 6.91834 5.47117L6.49286 5.77846L6.05462 5.46195C5.98515 5.41014 5.93435 5.3468 5.90669 5.2775C5.87902 5.2082 5.87534 5.13505 5.89595 5.06448C5.91657 4.99391 5.96086 4.92807 6.02493 4.87275C6.08901 4.81743 6.1709 4.77431 6.26343 4.74719C6.35597 4.72006 6.4563 4.70976 6.55564 4.71718C6.65497 4.7246 6.75026 4.74952 6.83314 4.78976C6.91603 4.82999 6.98397 4.8843 7.03101 4.94792C7.07804 5.01154 7.10273 5.08253 7.10291 5.15466L7.10271 5.1551Z" fill="white"/>
<defs>
<filter id="filter0_d_5144_19540" x="0.78256" y="0.362638" width="11.4349" height="10.9505" filterUnits="userSpaceOnUse" color-interpolation-filters="sRGB">
<feFlood flood-opacity="0" result="BackgroundImageFix"/>
<feColorMatrix in="SourceAlpha" type="matrix" values="0 0 0 0 0 0 0 0 0 0 0 0 0 0 0 0 0 0 127 0" result="hardAlpha"/>
<feMorphology radius="0.635294" operator="dilate" in="SourceAlpha" result="effect1_dropShadow_5144_19540"/>
<feOffset/>
<feGaussianBlur stdDeviation="0.264706"/>
<feComposite in2="hardAlpha" operator="out"/>
<feColorMatrix type="matrix" values="0 0 0 0 0 0 0 0 0 0 0 0 0 0 0 0 0 0 0.25 0"/>
<feBlend mode="normal" in2="BackgroundImageFix" result="effect1_dropShadow_5144_19540"/>
<feBlend mode="normal" in="SourceGraphic" in2="effect1_dropShadow_5144_19540" result="shape"/>
</filter>
</defs>
</svg>
