<svg width="16" height="16" viewBox="0 0 16 16" fill="none" xmlns="http://www.w3.org/2000/svg">
<g clip-path="url(#clip0_1086_1610)">
<path d="M8.00065 10C9.10522 10 10.0007 9.10461 10.0007 8.00004C10.0007 6.89547 9.10522 6.00004 8.00065 6.00004C6.89608 6.00004 6.00065 6.89547 6.00065 8.00004C6.00065 9.10461 6.89608 10 8.00065 10Z" stroke="#98A2B3" stroke-width="1.5" stroke-linecap="round" stroke-linejoin="round"/>
<path d="M12.4855 9.81822C12.4048 10.001 12.3808 10.2038 12.4164 10.4004C12.4521 10.597 12.5458 10.7784 12.6855 10.9213L12.7219 10.9576C12.8346 11.0702 12.924 11.2039 12.985 11.351C13.046 11.4982 13.0774 11.6559 13.0774 11.8152C13.0774 11.9745 13.046 12.1322 12.985 12.2794C12.924 12.4265 12.8346 12.5602 12.7219 12.6728C12.6093 12.7855 12.4756 12.8749 12.3285 12.9359C12.1813 12.9969 12.0236 13.0283 11.8643 13.0283C11.705 13.0283 11.5473 12.9969 11.4001 12.9359C11.253 12.8749 11.1193 12.7855 11.0067 12.6728L10.9703 12.6364C10.8275 12.4967 10.6461 12.403 10.4495 12.3673C10.2529 12.3317 10.0501 12.3557 9.86732 12.4364C9.68806 12.5132 9.53519 12.6408 9.4275 12.8034C9.31982 12.966 9.26204 13.1565 9.26126 13.3516V13.4546C9.26126 13.7761 9.13355 14.0844 8.90624 14.3117C8.67892 14.539 8.37061 14.6667 8.04914 14.6667C7.72766 14.6667 7.41935 14.539 7.19204 14.3117C6.96472 14.0844 6.83701 13.7761 6.83701 13.4546V13.4C6.83232 13.1994 6.76739 13.0049 6.65066 12.8417C6.53393 12.6785 6.37079 12.5542 6.18247 12.4849C5.99967 12.4042 5.7969 12.3801 5.60029 12.4158C5.40369 12.4514 5.22227 12.5452 5.07944 12.6849L5.04308 12.7213C4.9305 12.834 4.79682 12.9234 4.64967 12.9844C4.50252 13.0454 4.34479 13.0768 4.1855 13.0768C4.02621 13.0768 3.86848 13.0454 3.72133 12.9844C3.57418 12.9234 3.4405 12.834 3.32792 12.7213C3.21523 12.6087 3.12582 12.475 3.06482 12.3278C3.00382 12.1807 2.97242 12.023 2.97242 11.8637C2.97242 11.7044 3.00382 11.5467 3.06482 11.3995C3.12582 11.2524 3.21523 11.1187 3.32792 11.0061L3.36429 10.9697C3.50401 10.8269 3.59773 10.6455 3.63338 10.4489C3.66903 10.2523 3.64496 10.0495 3.56429 9.86671C3.48746 9.68745 3.3599 9.53458 3.1973 9.42689C3.0347 9.31921 2.84416 9.26143 2.64914 9.26065H2.54611C2.22463 9.26065 1.91632 9.13294 1.68901 8.90562C1.46169 8.67831 1.33398 8.37 1.33398 8.04853C1.33398 7.72705 1.46169 7.41874 1.68901 7.19143C1.91632 6.96411 2.22463 6.8364 2.54611 6.8364H2.60065C2.80125 6.83171 2.99581 6.76678 3.15901 6.65005C3.32222 6.53332 3.44654 6.37018 3.5158 6.18186C3.59648 5.99906 3.62054 5.79629 3.5849 5.59968C3.54925 5.40308 3.45552 5.22166 3.3158 5.07883L3.27944 5.04247C3.16674 4.92989 3.07734 4.79621 3.01634 4.64906C2.95534 4.50191 2.92394 4.34418 2.92394 4.18489C2.92394 4.0256 2.95534 3.86787 3.01634 3.72072C3.07734 3.57357 3.16674 3.43989 3.27944 3.32731C3.39201 3.21461 3.5257 3.12521 3.67284 3.06421C3.81999 3.00321 3.97772 2.97181 4.13701 2.97181C4.29631 2.97181 4.45404 3.00321 4.60118 3.06421C4.74833 3.12521 4.88202 3.21461 4.99459 3.32731L5.03095 3.36368C5.17379 3.5034 5.35521 3.59712 5.55181 3.63277C5.74841 3.66842 5.95119 3.64435 6.13398 3.56368H6.18247C6.36172 3.48685 6.5146 3.35929 6.62228 3.19669C6.72997 3.03409 6.78775 2.84355 6.78853 2.64853V2.5455C6.78853 2.22402 6.91624 1.91571 7.14355 1.6884C7.37087 1.46108 7.67918 1.33337 8.00065 1.33337C8.32213 1.33337 8.63043 1.46108 8.85775 1.6884C9.08507 1.91571 9.21277 2.22402 9.21277 2.5455V2.60004C9.21355 2.79506 9.27134 2.9856 9.37902 3.1482C9.4867 3.3108 9.63958 3.43837 9.81883 3.51519C10.0016 3.59587 10.2044 3.61993 10.401 3.58429C10.5976 3.54864 10.779 3.45491 10.9219 3.31519L10.9582 3.27883C11.0708 3.16613 11.2045 3.07673 11.3516 3.01573C11.4988 2.95473 11.6565 2.92333 11.8158 2.92333C11.9751 2.92333 12.1328 2.95473 12.28 3.01573C12.4271 3.07673 12.5608 3.16613 12.6734 3.27883C12.7861 3.3914 12.8755 3.52509 12.9365 3.67223C12.9975 3.81938 13.0289 3.97711 13.0289 4.1364C13.0289 4.2957 12.9975 4.45343 12.9365 4.60057C12.8755 4.74772 12.7861 4.88141 12.6734 4.99398L12.637 5.03034C12.4973 5.17318 12.4036 5.3546 12.3679 5.5512C12.3323 5.7478 12.3563 5.95058 12.437 6.13337V6.18186C12.5138 6.36111 12.6414 6.51399 12.804 6.62167C12.9666 6.72936 13.1571 6.78714 13.3522 6.78792H13.4552C13.7767 6.78792 14.085 6.91563 14.3123 7.14294C14.5396 7.37026 14.6673 7.67857 14.6673 8.00004C14.6673 8.32152 14.5396 8.62982 14.3123 8.85714C14.085 9.08446 13.7767 9.21216 13.4552 9.21216H13.4007C13.2056 9.21294 13.0151 9.27073 12.8525 9.37841C12.6899 9.48609 12.5623 9.63897 12.4855 9.81822Z" stroke="#98A2B3" stroke-width="1.5" stroke-linecap="round" stroke-linejoin="round"/>
</g>
<defs>
<clipPath id="clip0_1086_1610">
<rect width="16" height="16" fill="white"/>
</clipPath>
</defs>
</svg>
