<svg width="23" height="23" viewBox="0 0 23 23" fill="none" xmlns="http://www.w3.org/2000/svg">
<circle cx="11.8022" cy="11.2399" r="10.8862" fill="#D9D9D9"/>
<path fill-rule="evenodd" clip-rule="evenodd" d="M10.6875 16.3723L18.3009 6.14859L18.1263 6.01855L10.6189 16.0999L4.90847 12.9274L4.80273 13.1177L10.6813 16.3835L10.6875 16.3723Z" fill="white"/>
<path d="M18.3009 6.14859L19.271 6.87103L19.9935 5.9009L19.0233 5.17846L18.3009 6.14859ZM10.6875 16.3723L9.71735 15.6499L9.66924 15.7145L9.63012 15.7849L10.6875 16.3723ZM18.1263 6.01855L18.8487 5.04842L17.8786 4.32599L17.1562 5.29612L18.1263 6.01855ZM10.6189 16.0999L10.0315 17.1572L10.9568 17.6713L11.5891 16.8223L10.6189 16.0999ZM4.90847 12.9274L5.49589 11.87L4.43853 11.2826L3.85111 12.3399L4.90847 12.9274ZM4.80273 13.1177L3.74538 12.5303L3.15796 13.5876L4.21531 14.1751L4.80273 13.1177ZM10.6813 16.3835L10.0938 17.4409L11.1512 18.0283L11.7386 16.971L10.6813 16.3835ZM17.3308 5.42616L9.71735 15.6499L11.6576 17.0948L19.271 6.87103L17.3308 5.42616ZM17.4039 6.98869L17.5785 7.11872L19.0233 5.17846L18.8487 5.04842L17.4039 6.98869ZM11.5891 16.8223L19.0964 6.74099L17.1562 5.29612L9.64881 15.3774L11.5891 16.8223ZM4.32105 13.9847L10.0315 17.1572L11.2064 15.0425L5.49589 11.87L4.32105 13.9847ZM5.86009 13.7051L5.96583 13.5148L3.85111 12.3399L3.74538 12.5303L5.86009 13.7051ZM11.2687 15.3262L5.39016 12.0603L4.21531 14.1751L10.0938 17.4409L11.2687 15.3262ZM9.63012 15.7849L9.6239 15.7961L11.7386 16.971L11.7448 16.9598L9.63012 15.7849Z" fill="white"/>
</svg>
