<svg width="23" height="22" viewBox="0 0 23 22" fill="none" xmlns="http://www.w3.org/2000/svg">
<circle cx="11.8022" cy="10.8862" r="10.8862" fill="#FD671E"/>
<path fill-rule="evenodd" clip-rule="evenodd" d="M10.6875 16.0176L18.3009 5.79386L18.1263 5.66382L10.6189 15.7451L4.90847 12.5726L4.80273 12.763L10.6813 16.0288L10.6875 16.0176Z" fill="white"/>
<path d="M18.3009 5.79386L19.271 6.51629L19.9935 5.54616L19.0233 4.82373L18.3009 5.79386ZM10.6875 16.0176L9.71735 15.2952L9.66924 15.3598L9.63013 15.4302L10.6875 16.0176ZM18.1263 5.66382L18.8487 4.69369L17.8786 3.97125L17.1562 4.94138L18.1263 5.66382ZM10.6189 15.7451L10.0315 16.8025L10.9568 17.3165L11.5891 16.4676L10.6189 15.7451ZM4.90847 12.5726L5.49589 11.5153L4.43853 10.9279L3.85111 11.9852L4.90847 12.5726ZM4.80273 12.763L3.74538 12.1755L3.15796 13.2329L4.21531 13.8203L4.80273 12.763ZM10.6813 16.0288L10.0938 17.0862L11.1512 17.6736L11.7386 16.6162L10.6813 16.0288ZM17.3308 5.07142L9.71735 15.2952L11.6576 16.7401L19.271 6.51629L17.3308 5.07142ZM17.4039 6.63395L17.5785 6.76399L19.0233 4.82373L18.8487 4.69369L17.4039 6.63395ZM11.5891 16.4676L19.0964 6.38626L17.1562 4.94138L9.64881 15.0227L11.5891 16.4676ZM4.32105 13.63L10.0315 16.8025L11.2064 14.6878L5.49589 11.5153L4.32105 13.63ZM5.86009 13.3504L5.96583 13.1601L3.85111 11.9852L3.74538 12.1755L5.86009 13.3504ZM11.2687 14.9714L5.39016 11.7056L4.21531 13.8203L10.0938 17.0862L11.2687 14.9714ZM9.63013 15.4302L9.62391 15.4414L11.7386 16.6162L11.7448 16.605L9.63013 15.4302Z" fill="white"/>
</svg>
