<svg width="16" height="20" viewBox="0 0 16 20" fill="none" xmlns="http://www.w3.org/2000/svg">
<path d="M13.3327 10.0003C13.3327 9.77931 13.2624 9.56735 13.1374 9.41107C13.0124 9.25479 12.8428 9.16699 12.666 9.16699H7.60602L9.13935 7.25866C9.20151 7.18096 9.25081 7.08872 9.28446 6.9872C9.3181 6.88568 9.33541 6.77687 9.33541 6.66699C9.33541 6.55711 9.3181 6.4483 9.28446 6.34678C9.25081 6.24527 9.20151 6.15302 9.13935 6.07533C9.07719 5.99763 9.0034 5.93599 8.92218 5.89394C8.84097 5.85189 8.75392 5.83025 8.66602 5.83025C8.57811 5.83025 8.49106 5.85189 8.40985 5.89394C8.32863 5.93599 8.25484 5.99763 8.19268 6.07533L5.52602 9.40866C5.46532 9.48791 5.41775 9.58137 5.38602 9.68366C5.31934 9.88654 5.31934 10.1141 5.38602 10.317C5.41775 10.4193 5.46532 10.5127 5.52602 10.592L8.19268 13.9253C8.25466 14.0034 8.32839 14.0654 8.40963 14.1077C8.49087 14.15 8.57801 14.1718 8.66602 14.1718C8.75402 14.1718 8.84116 14.15 8.9224 14.1077C9.00364 14.0654 9.07737 14.0034 9.13935 13.9253C9.20183 13.8479 9.25143 13.7557 9.28528 13.6541C9.31912 13.5526 9.33655 13.4437 9.33655 13.3337C9.33655 13.2236 9.31912 13.1147 9.28528 13.0132C9.25143 12.9116 9.20183 12.8195 9.13935 12.742L7.60602 10.8337H12.666C12.8428 10.8337 13.0124 10.7459 13.1374 10.5896C13.2624 10.4333 13.3327 10.2213 13.3327 10.0003ZM11.3327 1.66699H4.66602C4.13558 1.66699 3.62687 1.93038 3.2518 2.39923C2.87673 2.86807 2.66602 3.50395 2.66602 4.16699V15.8337C2.66602 16.4967 2.87673 17.1326 3.2518 17.6014C3.62687 18.0703 4.13558 18.3337 4.66602 18.3337H11.3327C11.8631 18.3337 12.3718 18.0703 12.7469 17.6014C13.122 17.1326 13.3327 16.4967 13.3327 15.8337V13.3337C13.3327 13.1126 13.2624 12.9007 13.1374 12.7444C13.0124 12.5881 12.8428 12.5003 12.666 12.5003C12.4892 12.5003 12.3196 12.5881 12.1946 12.7444C12.0696 12.9007 11.9993 13.1126 11.9993 13.3337V15.8337C11.9993 16.0547 11.9291 16.2666 11.8041 16.4229C11.6791 16.5792 11.5095 16.667 11.3327 16.667H4.66602C4.4892 16.667 4.31964 16.5792 4.19461 16.4229C4.06959 16.2666 3.99935 16.0547 3.99935 15.8337V4.16699C3.99935 3.94598 4.06959 3.73402 4.19461 3.57774C4.31964 3.42146 4.4892 3.33366 4.66602 3.33366H11.3327C11.5095 3.33366 11.6791 3.42146 11.8041 3.57774C11.9291 3.73402 11.9993 3.94598 11.9993 4.16699V6.66699C11.9993 6.88801 12.0696 7.09997 12.1946 7.25625C12.3196 7.41253 12.4892 7.50033 12.666 7.50033C12.8428 7.50033 13.0124 7.41253 13.1374 7.25625C13.2624 7.09997 13.3327 6.88801 13.3327 6.66699V4.16699C13.3327 3.50395 13.122 2.86807 12.7469 2.39923C12.3718 1.93038 11.8631 1.66699 11.3327 1.66699Z" fill="#FD671E"/>
</svg>
